<svg xmlns="http://www.w3.org/2000/svg" viewBox="0 0 500 500"><g id="freepik--background-simple--inject-140"><path d="M113.42,165c-9.84,87.82,7.63,178.19,110.11,190.87C276.35,362.45,385.15,339,388,271.31c4-93.25-100.12-59.11-143.8-90.39-29.94-21.44-6.8-79.26-62-88.95C138.53,84.31,117.51,128.53,113.42,165Z" style="fill:#f0f0f0"></path></g><g id="freepik--Floor--inject-140"><path d="M481.3,447c0,.15-102.72.26-229.42.26S22.44,447.19,22.44,447s102.71-.26,229.44-.26S481.3,446.9,481.3,447Z" style="fill:#263238"></path></g><g id="freepik--Graphics--inject-140"><rect x="129.47" y="155.75" width="34.03" height="42.97" transform="translate(-0.72 0.6) rotate(-0.23)" style="fill:#fff"></rect><path d="M129.56,198.78l.64,0,1.83,0,6.91-.09,24.65-.21-.21.22c-.07-12.28-.14-27.06-.22-43-.06-.07.49.48.25.25h-4.56l-4.5,0-8.75,0-16.21,0,.23-.23c0,12.71,0,23.42,0,31,0,3.76,0,6.74,0,8.81,0,1,0,1.79,0,2.35,0,.25,0,.45,0,.61a1.66,1.66,0,0,1,0,.21.93.93,0,0,1,0-.18c0-.16,0-.35,0-.59,0-.55,0-1.31,0-2.3,0-2.06-.05-5-.1-8.76-.06-7.59-.14-18.35-.24-31.13v-.23h.23l16.22-.09,8.75,0,4.5,0h4.56l.27.26c0,15.91.09,30.69.13,43v.22h-25l-6.86,0h-1.79C129.75,198.8,129.56,198.78,129.56,198.78Z" style="fill:#263238"></path><rect x="144.43" y="197.75" width="4.72" height="1.15" transform="translate(-0.76 0.56) rotate(-0.22)" style="fill:#263238"></rect><rect x="141.55" y="170.78" width="10.32" height="14.91" transform="translate(-0.72 0.6) rotate(-0.23)" style="fill:#707986"></rect><rect x="141.55" y="170.78" width="10.32" height="14.91" transform="translate(-0.72 0.6) rotate(-0.23)" style="fill:#fff;opacity:0.5"></rect><rect x="144.92" y="155.16" width="4.72" height="0.98" transform="translate(-0.62 0.59) rotate(-0.23)" style="fill:#263238"></rect><circle cx="238.23" cy="129.68" r="22.84" style="fill:#707986"></circle><path d="M248.72,130.38a17.67,17.67,0,0,1-3,.17c-1.89,0-4.51.08-7.47.09H238V128.9c0-3.31,0-6.3.07-8.47a23.64,23.64,0,0,1,.19-3.51,24.73,24.73,0,0,1,.18,3.51c.05,2.17.08,5.16.08,8.47v1.48l-.26-.26c3,0,5.58,0,7.47.09A17.67,17.67,0,0,1,248.72,130.38Z" style="fill:#fff"></path><path d="M238.3,110.59c.14,0,.26.86.26,1.92s-.12,1.92-.26,1.92-.26-.86-.26-1.92S238.15,110.59,238.3,110.59Z" style="fill:#fff"></path><path d="M248.7,113.67c.11.1-.41.78-1.15,1.52s-1.42,1.26-1.52,1.16.41-.79,1.15-1.53S248.6,113.57,248.7,113.67Z" style="fill:#fff"></path><path d="M254.79,120.32c.06.13-.64.61-1.52,1.15s-1.63.93-1.71.81.54-.71,1.44-1.26S254.73,120.19,254.79,120.32Z" style="fill:#fff"></path><path d="M258.35,130.18a13.28,13.28,0,0,1-5.23,0,13.28,13.28,0,0,1,5.23,0Z" style="fill:#fff"></path><path d="M222.08,129.83a11.86,11.86,0,0,1-4.94,0,11.86,11.86,0,0,1,4.94,0Z" style="fill:#fff"></path><path d="M224.64,137.18c.1.11-.71.9-1.79,1.78s-2,1.49-2.13,1.37.72-.91,1.8-1.78A6.29,6.29,0,0,1,224.64,137.18Z" style="fill:#fff"></path><path d="M231,142.86a8.18,8.18,0,0,1-1.17,2.26c-.72,1.19-1.31,2.16-1.45,2.09a5.56,5.56,0,0,1,1-2.36C230.08,143.63,230.86,142.77,231,142.86Z" style="fill:#fff"></path><path d="M238.3,150.18a13.28,13.28,0,0,1,0-5.23,13.28,13.28,0,0,1,0,5.23Z" style="fill:#fff"></path><path d="M249.57,146.7a5.45,5.45,0,0,1-2.23-1.4c-1.1-1-1.79-1.93-1.68-2a10.12,10.12,0,0,1,2,1.63C248.75,145.84,249.66,146.57,249.57,146.7Z" style="fill:#fff"></path><path d="M254.87,141c-.11.1-.92-.55-1.82-1.45s-1.54-1.71-1.44-1.81.91.54,1.81,1.44S255,140.89,254.87,141Z" style="fill:#fff"></path><path d="M224.4,122.8c-.1.1-.82-.45-1.61-1.24s-1.34-1.51-1.24-1.61.83.45,1.61,1.24S224.5,122.7,224.4,122.8Z" style="fill:#fff"></path><path d="M230.93,115.92c-.1.1-.81-.44-1.58-1.21s-1.31-1.47-1.21-1.58.81.44,1.58,1.21S231,115.82,230.93,115.92Z" style="fill:#fff"></path><rect x="309.99" y="200.74" width="35.05" height="23.62" transform="translate(-18.61 31.88) rotate(-5.42)" style="fill:#fff"></rect><path d="M346.08,222.65a2.32,2.32,0,0,1-.07-.44c0-.32-.08-.73-.14-1.26-.12-1.12-.29-2.72-.51-4.74-.41-4.11-1-10-1.72-17.06l.22.19L309,202.7c-.05.06.44-.53.24-.28h0v.17l0,.2,0,.39.07.78.15,1.56c.1,1,.2,2.06.29,3.08.19,2,.38,4,.57,6,.37,3.94.72,7.72,1.05,11.31l-.26-.22,25.09-2.26,7.21-.62,1.93-.15.5,0h.19a4.73,4.73,0,0,1-.63.09l-1.88.21-7.14.74-25.22,2.51-.24,0,0-.24c-.35-3.58-.71-7.36-1.09-11.3q-.28-3-.57-6l-.3-3.08-.15-1.56-.07-.78,0-.39,0-.2v-.17h0l.23-.28,34.89-3.26.21,0,0,.21c.64,7.17,1.16,13.06,1.52,17.2.17,2,.3,3.59.4,4.71,0,.51.07.91.09,1.22S346.08,222.66,346.08,222.65Z" style="fill:#263238"></path><path d="M343.84,199.13a9.3,9.3,0,0,1-1.06,1.33l-3,3.52c-2.6,3-6.23,7-10.3,11.56l-.15.17-.19-.12-.93-.59c-5.34-3.41-10.16-6.52-13.64-8.79l-4.1-2.71-1.1-.76q-.37-.27-.36-.3a2.1,2.1,0,0,1,.42.21l1.15.68,4.19,2.57c3.53,2.19,8.38,5.25,13.72,8.66l.93.59-.33,0c4.07-4.52,7.75-8.56,10.42-11.45l3.17-3.41A13.76,13.76,0,0,1,343.84,199.13Z" style="fill:#263238"></path><rect x="296.75" y="83.55" width="44.24" height="65.84" style="fill:#707986"></rect><rect x="296.75" y="83.55" width="44.24" height="65.84" style="opacity:0.30000000000000004"></rect><path d="M341.5,149.9H296.23V83H341.5Zm-44.24-1h43.21V84.06H297.26Z" style="fill:#263238"></path><rect x="301.2" y="87.61" width="35.41" height="57.68" style="fill:#fff"></rect><rect x="308.92" y="103.96" width="19.88" height="23.3" style="fill:#707986"></rect><path d="M269.77,197.92a1.81,1.81,0,0,0,.87-.33,1.65,1.65,0,0,0,.61-.91,9.46,9.46,0,0,0,.05-1.56c0-2.44,0-5.9.07-10.14q0-1.6,0-3.36c0-.59,0-1.18,0-1.79a6.05,6.05,0,0,0,0-.87,1.44,1.44,0,0,0-.37-.71,1.37,1.37,0,0,0-.71-.38,6.94,6.94,0,0,0-.93,0h-2l-4.13,0-18.41,0a1.39,1.39,0,0,0-1.36,1.28c0,.8,0,1.6,0,2.38,0,1.59-.05,3.16-.07,4.7,0,3.08-.1,6.05-.14,8.88,0,.35,0,.71,0,1.05a1.43,1.43,0,0,0,.21.87,1.32,1.32,0,0,0,.66.55,2.36,2.36,0,0,0,.91.1h3.9l7,0,10.14.08,2.76.05.71,0a.67.67,0,0,1,.25,0,.79.79,0,0,1-.25,0l-.71,0-2.76,0-10.14.09-7,0H245a2.78,2.78,0,0,1-1.08-.11,1.84,1.84,0,0,1-.89-.74,2,2,0,0,1-.29-1.12c0-.35,0-.7,0-1.06,0-2.83.07-5.8.11-8.88,0-1.54,0-3.1.06-4.69,0-.8,0-1.61,0-2.42a1.91,1.91,0,0,1,1.88-1.76l18.41,0h6.11a7.1,7.1,0,0,1,1,0,1.78,1.78,0,0,1,.94.51,1.93,1.93,0,0,1,.48.93,5.23,5.23,0,0,1,0,1c0,.6,0,1.2,0,1.78,0,1.17,0,2.29-.07,3.36-.09,4.25-.17,7.7-.22,10.14a8.74,8.74,0,0,1-.11,1.6,1.74,1.74,0,0,1-.7,1,1.54,1.54,0,0,1-.68.25C269.85,197.94,269.77,197.93,269.77,197.92Z" style="fill:#263238"></path><polygon points="258.38 186.05 261.79 188.12 258.31 190.17 254.82 192.21 254.89 188.09 254.97 183.98 258.38 186.05" style="fill:#263238"></polygon><path d="M187.54,245.43,162,231.67h0a22.23,22.23,0,0,0,7.1-8l9.35-17.91a11.14,11.14,0,0,1,8.86-5.81h0L211,212.68h0a14.42,14.42,0,0,0-6.55,6.21l-10.58,19.59a19.52,19.52,0,0,1-6.32,7Z" style="fill:#fff"></path><path d="M187.54,245.43l.28-.22.83-.65a19.68,19.68,0,0,0,2.86-2.82,19,19,0,0,0,1.69-2.36c.54-.91,1.06-2,1.66-3l4-7.48c1.49-2.77,3.11-5.8,4.85-9.06a23.61,23.61,0,0,1,1.43-2.45,15.06,15.06,0,0,1,1.92-2.24,15.24,15.24,0,0,1,2.41-1.85c.44-.27.89-.52,1.36-.75l0,0h0c0,.84,0,.23,0,.41l-.08,0-.17-.09-.34-.19-.69-.36L198.11,206,192,202.75l-3.1-1.68-1.57-.84-.1-.06-.05,0,.12,0h0l-.22,0-.43.05c-.29.06-.58.1-.86.17A10.84,10.84,0,0,0,180,204a13.62,13.62,0,0,0-1.82,2.88l-1.58,3-6,11.55a37.84,37.84,0,0,1-3.07,5.27,22.93,22.93,0,0,1-4,4.15c-.36.29-.73.57-1.11.83l-.13.1-.07.05c0-.72,0-.19,0-.35h0l0,0,.29.16.6.32,2.3,1.25,4.33,2.36,13.05,7.14,3.54,2,.91.52a2.11,2.11,0,0,1,.31.19,1.44,1.44,0,0,1-.33-.14l-.94-.48-3.58-1.88-13.13-7-4.35-2.33-2.31-1.24-.59-.32-.3-.16,0,0h0c0-.16,0,.35,0-.37l.07-.05.14-.1c.37-.26.73-.53,1.08-.82a22.66,22.66,0,0,0,3.91-4.08,36.68,36.68,0,0,0,3-5.22l6-11.57,1.58-3a14,14,0,0,1,1.87-3,11.37,11.37,0,0,1,6.1-3.72c.29-.08.6-.12.9-.18l.45-.05.23,0h0l.17,0,.05,0,.1.05,1.57.85,3.1,1.67,6.06,3.28,11.46,6.2.69.37.33.19.17.09.09,0c0,.2,0-.41,0,.44h0l0,0a13.9,13.9,0,0,0-1.32.72,14.15,14.15,0,0,0-2.34,1.78,14.63,14.63,0,0,0-1.87,2.16,23.4,23.4,0,0,0-1.42,2.41l-4.9,9-4.07,7.45c-.6,1.09-1.13,2.12-1.7,3a20.1,20.1,0,0,1-1.74,2.36,18.7,18.7,0,0,1-3,2.78c-.37.27-.66.48-.86.6A1.54,1.54,0,0,1,187.54,245.43Z" style="fill:#263238"></path><path d="M199.41,219.43c0,.09-4.23-2.1-9.35-4.89s-9.22-5.12-9.17-5.21,4.23,2.11,9.35,4.89S199.46,219.35,199.41,219.43Z" style="fill:#263238"></path><path d="M198,223c0,.09-4.37-2.18-9.66-5.06s-9.53-5.29-9.48-5.38,4.37,2.18,9.66,5.06S198.06,222.9,198,223Z" style="fill:#263238"></path><path d="M196.32,226.1c0,.08-4.38-2.18-9.66-5.06s-9.53-5.3-9.49-5.39,4.38,2.18,9.66,5.06S196.36,226,196.32,226.1Z" style="fill:#263238"></path><path d="M194.62,229.2c-.05.09-4.37-2.18-9.66-5.06s-9.53-5.29-9.48-5.38,4.37,2.18,9.66,5.06S194.67,229.11,194.62,229.2Z" style="fill:#263238"></path><path d="M192.93,232.3c-.05.09-4.37-2.17-9.66-5.06s-9.53-5.29-9.48-5.38,4.37,2.18,9.66,5.06S193,232.22,192.93,232.3Z" style="fill:#263238"></path><path d="M182,230.39a8,8,0,0,1-1.51-.68c-.92-.46-2.17-1.12-3.54-1.87s-2.61-1.44-3.49-2a7.86,7.86,0,0,1-1.4-.91,6.93,6.93,0,0,1,1.52.68c.92.46,2.17,1.12,3.54,1.87s2.61,1.44,3.49,2A7.5,7.5,0,0,1,182,230.39Z" style="fill:#263238"></path><path d="M188.06,238.42s.1-.25.2-.71a3,3,0,0,0-.22-1.89,2.82,2.82,0,1,0-2.17,4,3,3,0,0,0,1.71-.84c.33-.33.45-.56.48-.54a1.57,1.57,0,0,1-.38.64,3,3,0,0,1-1.77,1,3.1,3.1,0,0,1-2.82-1,3.13,3.13,0,0,1,2.83-5.19,3.07,3.07,0,0,1,2.36,1.84,3,3,0,0,1,.12,2A1.78,1.78,0,0,1,188.06,238.42Z" style="fill:#263238"></path><rect x="181.99" y="207.79" width="8.41" height="1.21" transform="translate(122.52 -63.71) rotate(28.61)" style="fill:#263238"></rect><polygon points="163.38 129.68 156.84 122.73 156.84 145.76 170.73 130.17 163.38 129.68" style="fill:#707986"></polygon><polygon points="163.38 129.68 156.84 122.73 156.84 145.76 170.73 130.17 163.38 129.68" style="fill:#fff;opacity:0.5"></polygon><polyline points="156.99 145.59 165.12 129.79 163.38 129.68 162.31 128.55 156.99 145.59" style="fill:#707986"></polyline><path d="M163.38,129.68a12.77,12.77,0,0,1-.72,2.44c-.52,1.49-1.29,3.52-2.21,5.74s-1.81,4.19-2.46,5.62a12.76,12.76,0,0,1-1.15,2.28,13.13,13.13,0,0,1,.81-2.42c.57-1.47,1.39-3.47,2.32-5.68s1.67-4,2.34-5.67A12.09,12.09,0,0,1,163.38,129.68Z" style="fill:#263238"></path><path d="M163.33,126.63a12.16,12.16,0,0,1-.89,4.92,6.08,6.08,0,0,1,.18-2.51A6.18,6.18,0,0,1,163.33,126.63Z" style="fill:#263238"></path><path d="M165.94,117a6.1,6.1,0,0,1-.47,2.47,6.27,6.27,0,0,1-1,2.32,6.15,6.15,0,0,1,.47-2.47A6.27,6.27,0,0,1,165.94,117Z" style="fill:#263238"></path><path d="M169.62,107.69a6.4,6.4,0,0,1-.75,2.4,6.24,6.24,0,0,1-1.22,2.19,6.28,6.28,0,0,1,.75-2.4A6.12,6.12,0,0,1,169.62,107.69Z" style="fill:#263238"></path><path d="M174.29,98.85a6,6,0,0,1-1,2.31,6.34,6.34,0,0,1-1.46,2,6.48,6.48,0,0,1,1-2.31A6.28,6.28,0,0,1,174.29,98.85Z" style="fill:#263238"></path><path d="M179.91,90.58a6.35,6.35,0,0,1-1.25,2.18c-.8,1.12-1.55,2-1.67,1.88a6.14,6.14,0,0,1,1.25-2.18C179.05,91.33,179.8,90.5,179.91,90.58Z" style="fill:#263238"></path><path d="M186.41,83a6.27,6.27,0,0,1-1.49,2c-.92,1-1.76,1.77-1.87,1.67s.56-1,1.49-2S186.3,82.89,186.41,83Z" style="fill:#263238"></path><path d="M193.73,76.18c.09.11-.67.94-1.71,1.85A6.4,6.4,0,0,1,190,79.48c-.1-.11.67-.93,1.71-1.85S193.64,76.07,193.73,76.18Z" style="fill:#263238"></path><path d="M201.8,70.29c.08.13-.8.81-1.92,1.61a6.29,6.29,0,0,1-2.2,1.21c-.09-.11.76-.85,1.9-1.64A5.5,5.5,0,0,1,201.8,70.29Z" style="fill:#263238"></path><path d="M210.53,65.42c.07.13-.88.75-2.1,1.38a6,6,0,0,1-2.34.92,6.34,6.34,0,0,1,2.1-1.38A6.16,6.16,0,0,1,210.53,65.42Z" style="fill:#263238"></path><path d="M219.78,61.63a6.28,6.28,0,0,1-2.25,1.12,6.2,6.2,0,0,1-2.43.64,6.1,6.1,0,0,1,2.25-1.13A6.22,6.22,0,0,1,219.78,61.63Z" style="fill:#263238"></path><path d="M229.41,58.94a6.31,6.31,0,0,1-2.36.85,6.07,6.07,0,0,1-2.49.35,12.21,12.21,0,0,1,4.85-1.2Z" style="fill:#263238"></path><path d="M239.29,57.39a6.31,6.31,0,0,1-2.45.57,6.19,6.19,0,0,1-2.51.06,6.2,6.2,0,0,1,2.44-.58A6.1,6.1,0,0,1,239.29,57.39Z" style="fill:#263238"></path><path d="M249.27,57a6.28,6.28,0,0,1-2.49.28,6.21,6.21,0,0,1-2.5-.23,6.3,6.3,0,0,1,2.49-.29A6,6,0,0,1,249.27,57Z" style="fill:#263238"></path><path d="M259.23,57.77a6.47,6.47,0,0,1-2.51,0,6.35,6.35,0,0,1-2.45-.53,12,12,0,0,1,5,.54Z" style="fill:#263238"></path><path d="M269,59.74a11.8,11.8,0,0,1-4.87-1.14A12.35,12.35,0,0,1,269,59.74Z" style="fill:#263238"></path><path d="M278.5,62.93a12.05,12.05,0,0,1-4.69-1.75,6.22,6.22,0,0,1,2.44.63A6.47,6.47,0,0,1,278.5,62.93Z" style="fill:#263238"></path><path d="M287.42,67.43A12,12,0,0,1,283,65a6.16,6.16,0,0,1,2.32,1A6.29,6.29,0,0,1,287.42,67.43Z" style="fill:#263238"></path><path d="M295.44,73.37c-.1.11-1-.51-2.1-1.37s-1.86-1.66-1.77-1.78,1,.5,2.1,1.37S295.54,73.27,295.44,73.37Z" style="fill:#263238"></path><path d="M302.28,80.62c-.12.07-.81-.8-1.68-1.86a8.1,8.1,0,0,1-1.47-2c.1-.1,1,.61,1.87,1.69A5,5,0,0,1,302.28,80.62Z" style="fill:#263238"></path><path d="M276.49,186.88A6.33,6.33,0,0,1,274,187a6.22,6.22,0,0,1-2.48-.4,6.27,6.27,0,0,1,2.51-.12A6.12,6.12,0,0,1,276.49,186.88Z" style="fill:#263238"></path><path d="M286.47,186.38a6,6,0,0,1-2.47.48,6.29,6.29,0,0,1-2.51,0,12.11,12.11,0,0,1,5-.44Z" style="fill:#263238"></path><path d="M296.23,184.24a12.24,12.24,0,0,1-4.83,1.3,12.24,12.24,0,0,1,4.83-1.3Z" style="fill:#263238"></path><path d="M305.35,180.18a5.56,5.56,0,0,1-2.07,1.44,5.5,5.5,0,0,1-2.38.85c-.06-.14.92-.69,2.14-1.31A7.24,7.24,0,0,1,305.35,180.18Z" style="fill:#263238"></path><path d="M313.19,174c.11.1-.59,1-1.62,1.92a5.46,5.46,0,0,1-2.09,1.42c-.09-.12.72-.89,1.74-1.8S313.09,173.93,313.19,174Z" style="fill:#263238"></path><path d="M319.13,166a5.41,5.41,0,0,1-1.06,2.3c-.75,1.17-1.52,2-1.63,1.91a7.3,7.3,0,0,1,1.2-2.19C318.38,166.87,319,166,319.13,166Z" style="fill:#263238"></path><path d="M322.51,156.65a8.76,8.76,0,0,1-1.32,4.81,7.33,7.33,0,0,1,.51-2.45A7.72,7.72,0,0,1,322.51,156.65Z" style="fill:#263238"></path><path d="M322.86,148.72c.14,0,.29.64.33,1.47s-.05,1.49-.19,1.49-.29-.66-.33-1.47S322.71,148.74,322.86,148.72Z" style="fill:#263238"></path><path d="M200.14,201.34a7.15,7.15,0,0,1-1.31,2.14c-.81,1.11-1.49,2-1.61,1.92a5.4,5.4,0,0,1,1.19-2.23C199.22,202,200,201.25,200.14,201.34Z" style="fill:#263238"></path><path d="M207.32,194.42c.09.11-.73.87-1.77,1.77s-1.92,1.59-2,1.48.63-1,1.68-1.88S207.23,194.3,207.32,194.42Z" style="fill:#263238"></path><path d="M215.87,189.25a6.34,6.34,0,0,1-2.09,1.4,6.27,6.27,0,0,1-2.33.95,6.38,6.38,0,0,1,2.09-1.41A6.14,6.14,0,0,1,215.87,189.25Z" style="fill:#263238"></path><path d="M225.33,186a16.44,16.44,0,0,1-4.82,1.35,5.39,5.39,0,0,1,2.32-1A5.5,5.5,0,0,1,225.33,186Z" style="fill:#263238"></path><path d="M235.25,185a7,7,0,0,1-2.49.3,6.87,6.87,0,0,1-2.5-.07,9.47,9.47,0,0,1,5-.23Z" style="fill:#263238"></path><path d="M240.85,185.47a.29.29,0,0,1-.34.21.29.29,0,0,1-.28-.3.3.3,0,0,1,.35-.22C240.75,185.19,240.88,185.32,240.85,185.47Z" style="fill:#263238"></path><path d="M212.86,268a6.12,6.12,0,0,1,2.25,1.13c1.16.75,2,1.45,2,1.57a5.93,5.93,0,0,1-2.25-1.13C213.66,268.79,212.78,268.09,212.86,268Z" style="fill:#263238"></path><path d="M204.84,262a6.42,6.42,0,0,1,2.12,1.35c1.07.86,1.88,1.64,1.79,1.76s-1-.49-2.12-1.35S204.74,262.12,204.84,262Z" style="fill:#263238"></path><path d="M198.72,254.18c.13-.07.75.86,1.48,2a7.67,7.67,0,0,1,1.19,2.2c-.11.09-.89-.74-1.63-1.92A5.52,5.52,0,0,1,198.72,254.18Z" style="fill:#263238"></path><path d="M194.9,245a12,12,0,0,1,1.68,4.71,6.2,6.2,0,0,1-1.08-2.27A6.33,6.33,0,0,1,194.9,245Z" style="fill:#263238"></path></g><g id="freepik--Character--inject-140"><polygon points="268.95 358.29 266.89 447.28 262.97 447.28 263.22 358.51 268.95 358.29" style="fill:#455a64"></polygon><polygon points="283.13 357.3 302.21 447.28 306.59 447.28 290.7 357.3 283.13 357.3" style="fill:#455a64"></polygon><polygon points="247.35 358.29 226.24 447.28 221.86 447.28 241.03 357.92 247.35 358.29" style="fill:#455a64"></polygon><path d="M302.27,273s21.08-1.2,19,23.18-3.31,49.07-11.14,57.5-86.7,8.73-93.32,1.81,12.64-6.63,16.25-6.63,25.89,2.11,33.12-16.85S271.57,271.75,302.27,273Z" style="fill:#455a64"></path><path d="M303.62,273s16.11,3.3,14.61,20.16-5.72,46.36-13.55,53.89-38.5,9.16-55.09,8.13c-19.27-1.21-31.43-4.88-31.43-4.88s-3.52,2.26-2.45,3.72,10.46,7.31,56,6.34,42.37-7.7,44.26-15,5.86-46.47,5.31-55.07S316.39,274.47,303.62,273Z" style="fill:#455a64"></path><path d="M303.62,273s16.11,3.3,14.61,20.16-5.72,46.36-13.55,53.89-38.5,9.16-55.09,8.13c-19.27-1.21-31.43-4.88-31.43-4.88s-3.52,2.26-2.45,3.72,10.46,7.31,56,6.34,42.37-7.7,44.26-15,5.86-46.47,5.31-55.07S316.39,274.47,303.62,273Z" style="opacity:0.2"></path><path d="M290.41,305.78a1.8,1.8,0,1,0,1.74-2.23A2,2,0,0,0,290.41,305.78Z" style="fill:#455a64"></path><path d="M291.6,295.91a12.91,12.91,0,0,0-.6,3.25,7.71,7.71,0,0,0,.77,3.42,7.13,7.13,0,0,0,1.15,1.71,7.74,7.74,0,0,1,.81.87,1.76,1.76,0,0,1,.29,1.34,15,15,0,0,1-.89,2.19,7,7,0,0,0-.26,2,7.59,7.59,0,0,0,.88,3.39,12.89,12.89,0,0,0,2,2.6s-.31-.11-.78-.49a7.12,7.12,0,0,1-1.62-1.9,7.53,7.53,0,0,1-1.07-3.59,7.12,7.12,0,0,1,.26-2.24,20.18,20.18,0,0,0,.86-2.09c.16-.67-.39-1.14-.94-1.7a7.46,7.46,0,0,1-1.22-1.88,7.65,7.65,0,0,1-.69-3.67,7.42,7.42,0,0,1,.55-2.45A2.2,2.2,0,0,1,291.6,295.91Z" style="fill:#455a64"></path><path d="M286.82,302.89c.1,0,0,.53.25,1.27a4.47,4.47,0,0,0,1.75,2.37,7,7,0,0,0,2.86,1c.8.12,1.31.13,1.31.22s-.5.21-1.34.2a6,6,0,0,1-3.17-.94,4.32,4.32,0,0,1-1.83-2.77C286.52,303.38,286.76,302.87,286.82,302.89Z" style="fill:#455a64"></path><g style="opacity:0.2"><path d="M290.41,305.78a1.8,1.8,0,1,0,1.74-2.23A2,2,0,0,0,290.41,305.78Z"></path><path d="M291.6,295.91a12.91,12.91,0,0,0-.6,3.25,7.71,7.71,0,0,0,.77,3.42,7.13,7.13,0,0,0,1.15,1.71,7.74,7.74,0,0,1,.81.87,1.76,1.76,0,0,1,.29,1.34,15,15,0,0,1-.89,2.19,7,7,0,0,0-.26,2,7.59,7.59,0,0,0,.88,3.39,12.89,12.89,0,0,0,2,2.6s-.31-.11-.78-.49a7.12,7.12,0,0,1-1.62-1.9,7.53,7.53,0,0,1-1.07-3.59,7.12,7.12,0,0,1,.26-2.24,20.18,20.18,0,0,0,.86-2.09c.16-.67-.39-1.14-.94-1.7a7.46,7.46,0,0,1-1.22-1.88,7.65,7.65,0,0,1-.69-3.67,7.42,7.42,0,0,1,.55-2.45A2.2,2.2,0,0,1,291.6,295.91Z"></path><path d="M286.82,302.89c.1,0,0,.53.25,1.27a4.47,4.47,0,0,0,1.75,2.37,7,7,0,0,0,2.86,1c.8.12,1.31.13,1.31.22s-.5.21-1.34.2a6,6,0,0,1-3.17-.94,4.32,4.32,0,0,1-1.83-2.77C286.52,303.38,286.76,302.87,286.82,302.89Z"></path></g><path d="M266.23,212.11c-.27-.1-.62-.21-1.08-.33a14.25,14.25,0,0,0-4.79-.43,10.57,10.57,0,0,0-6.5,2.85,9.35,9.35,0,0,0-2.35,3.57,7.88,7.88,0,0,0-.44,2.24c0,.78.06,1.54,0,2.28a2.56,2.56,0,0,1-.78,1.87,6,6,0,0,1-1.85,1,6.64,6.64,0,0,0-1.91,1.1,5.38,5.38,0,0,0-1.68,5.53,13.53,13.53,0,0,0,1.43,3c.24.38.44.75.63,1.11a4.21,4.21,0,0,1,0,.94,6.4,6.4,0,0,1-1.89,3.59,15.58,15.58,0,0,0-2.6,3.2,3.57,3.57,0,0,0,.17,3.9c1,1.16,2.77,1.16,4.31,1.12a130.55,130.55,0,0,1,16,.89l4.32-37.18Q266.77,212.25,266.23,212.11Zm-13.47,6.58c-.24,1.47,0,3.06-.73,4.37s-2.32,2.1-3.51,3.14a7.34,7.34,0,0,0-2.32,6.71c.11.62.31,1.23.48,1.85l-.06-.1a13.36,13.36,0,0,1-1.33-3,4.81,4.81,0,0,1,.38-3.52,4.76,4.76,0,0,1,1.2-1.52,6.12,6.12,0,0,1,1.79-1,6.57,6.57,0,0,0,2-1.11,3.08,3.08,0,0,0,.94-2.22c0-.81-.07-1.57,0-2.29a7.31,7.31,0,0,1,.4-2.09,9,9,0,0,1,2.2-3.4,10.38,10.38,0,0,1,6.21-2.82,13.65,13.65,0,0,1,1.53-.08,11.64,11.64,0,0,0-3.46.65A8.63,8.63,0,0,0,252.76,218.69Z" style="fill:#263238"></path><path d="M260.1,256.09c.31-1.71-.24-8.93-.24-8.93s-6.4-.81-6.68-7.35.38-21.59.38-21.59l11.78-5.66,10.29,11.73.19,31.7Z" style="fill:#ffbe9d"></path><path d="M255.21,229.22a.82.82,0,1,0,.83-.82A.83.83,0,0,0,255.21,229.22Z" style="fill:#263238"></path><path d="M253.87,228.3c.1.11.71-.41,1.59-.44s1.53.41,1.62.29-.06-.25-.34-.46a2.05,2.05,0,0,0-1.3-.37,2.09,2.09,0,0,0-1.27.49C253.91,228,253.82,228.25,253.87,228.3Z" style="fill:#263238"></path><path d="M264.75,229.22a.82.82,0,1,0,.83-.82A.83.83,0,0,0,264.75,229.22Z" style="fill:#263238"></path><path d="M263.59,228.47c.1.11.71-.41,1.59-.44s1.53.41,1.62.29-.06-.25-.34-.46a2.12,2.12,0,0,0-1.3-.38,2.15,2.15,0,0,0-1.27.49C263.63,228.21,263.54,228.42,263.59,228.47Z" style="fill:#263238"></path><path d="M260.29,236a5.65,5.65,0,0,0-1.43-.22c-.22,0-.43,0-.47-.21a1.28,1.28,0,0,1,.13-.72c.21-.59.42-1.21.64-1.86a32.59,32.59,0,0,0,1.41-4.84,34,34,0,0,0-1.77,4.72c-.21.65-.41,1.27-.61,1.86a1.5,1.5,0,0,0-.1.95.58.58,0,0,0,.38.34,1.82,1.82,0,0,0,.38,0A5.65,5.65,0,0,0,260.29,236Z" style="fill:#263238"></path><path d="M259.86,247.16a15.62,15.62,0,0,0,8.48-2.78s-2,4.76-8.37,4.38Z" style="fill:#eb996e"></path><path d="M291.66,233a3.83,3.83,0,0,1-1.24,0c-.74-1.16-2.07-2-3.06-3.07a5.14,5.14,0,0,1,.24-2.85,12.85,12.85,0,0,0,.46-1.55,3.12,3.12,0,0,0-.09-1.76,4.7,4.7,0,0,0-2.57-2.35c-.88-1.23-2.49-1.8-3.61-2.85a8.4,8.4,0,0,1-.5-1.76,12,12,0,0,0-.77-2.87,5.46,5.46,0,0,0-1.66-2,5.72,5.72,0,0,0-2.82-1.17,7.59,7.59,0,0,0-2.3-.76A8,8,0,0,0,267,212.2a13.77,13.77,0,0,0-10.62,1.64,8,8,0,0,0-3.36,3.4,10.49,10.49,0,0,0-.63,4.25c0,1,0,2.07,0,3.1a1.34,1.34,0,0,0,.15.77,1.38,1.38,0,0,0,1.14.42l4.79.18a1.71,1.71,0,0,0,.95-.15,1.66,1.66,0,0,0,.75-1.52c0-.45,0-1.37,0-1.63a18.22,18.22,0,0,0,.57,1.85,2.44,2.44,0,0,0,1,1.67,2.92,2.92,0,0,0,1.38.23c.69,0,1.38,0,2.07,0a1.7,1.7,0,0,0,1-.25,1.61,1.61,0,0,0,.37-1.54,10.6,10.6,0,0,1-.33-2.14c.62,1.22.92,2.74,1.68,2.94a5.26,5.26,0,0,0,2.31-.17c.77-.24,1.31-.43,1.87-.61a5.16,5.16,0,0,1-.23.94c-.58,1.57-1.89,3.08-1.44,4.69s2.07,2.17,2.91,3.44a5.5,5.5,0,0,1,.18,4.79,43.24,43.24,0,0,0-1.77,4.63c-.37,1.61-.11,3.54,1.21,4.53a6,6,0,0,0,3.66.83l11.62.1a6.35,6.35,0,0,0,2.22-.24,2.14,2.14,0,0,0,1.48-1.55,2.73,2.73,0,0,0-1.06-2.31,7.32,7.32,0,0,1-1.77-2c-.61-1.31,0-2.84.66-4.11s1.46-2.65,1.21-4.07a3.2,3.2,0,0,0-.34-1,3.41,3.41,0,0,0,1.12-.13,2.58,2.58,0,0,0,.93-.45c.18-.14.26-.23.25-.25A4.73,4.73,0,0,1,291.66,233Zm-14.85-21.78a5.64,5.64,0,0,1,1.82,1,5.13,5.13,0,0,1,1.5,1.92,12,12,0,0,1,.69,2.78c0,.2.08.41.12.62-.56-1-.84-2.13-1.33-3.16A7.93,7.93,0,0,0,276.81,211.23Zm9,11a3.61,3.61,0,0,1,1.67,1.72,4.63,4.63,0,0,1-.34,3,5.24,5.24,0,0,0-.32,2.36,4,4,0,0,1-.5-.9C285.56,226.5,286.51,224.16,285.82,222.27Z" style="fill:#263238"></path><path d="M260.61,238.31a1.71,1.71,0,0,1,1-1.25,1.35,1.35,0,0,1,1.13,0,1,1,0,0,1,.52,1,1.11,1.11,0,0,1-.91.84,3,3,0,0,1-1.3-.08,1,1,0,0,1-.34-.13.3.3,0,0,1-.14-.31" style="fill:#eb996e"></path><path d="M262.78,236c.07,0,.18.24.15.66a2.37,2.37,0,0,1-.72,1.49,2.34,2.34,0,0,1-1.53.63c-.43,0-.67-.12-.66-.18s1-.07,1.83-.83S262.64,236,262.78,236Z" style="fill:#263238"></path><path d="M247.56,259.23S228.19,276.07,227.69,274c-2.73-11.15-2-25.38-1.52-30.82.3-.47.65-1,1.06-1.56A7.55,7.55,0,0,1,229,240a11,11,0,0,1,2.63-1.47c.89-.26,1-1.45.26-1.73s-3.25.35-5.55,2.27-1.36-2.64-1.05-4.31,1-6.87.59-7.36c-.64-.71-1.55-.14-1.83,1.53s-1.44,6.64-2.31,6.46.83-8.66.83-8.66.66-1.76-.34-2c-1.82-.45-2.95,8.68-3,9.55-.06.6-1,.44-.92-.21s1.89-8.42,0-8.89c-1.41-.36-1,7.5-2.27,8.93s.3-6-1.06-6.3c-.51-.1-.91-.11-1.19,4.27a94.72,94.72,0,0,0,.38,10.57c-1.2,12-3.55,48.85,13.08,47.58,19.63-1.49,24.15-17,24.15-17Z" style="fill:#ffbe9d"></path><path d="M301.82,286l-3.36-16.84c-2.47-13.79-21.8-14.74-21.8-14.74l-15.17-.25s-10.1-.32-18.19,6.31-13.51,11.74-13.51,11.74l12.69,14.68,7.52-5s-2.71,4.88-2.26,9c.43,4,4.63,7.06,4.63,7.06l-3.16,33.87,49.54-2L292.37,286Z" style="fill:#707986"></path><path d="M299.46,272.84a8.66,8.66,0,0,1-.58,1.24,13.9,13.9,0,0,1-7.75,6.28,14.17,14.17,0,0,1-8.19.09,11.67,11.67,0,0,1-4.27-2.25,6.83,6.83,0,0,1-2.5-4.57,5.21,5.21,0,0,1,2.57-4.86,3.71,3.71,0,0,1,3-.2,5,5,0,0,1,2.42,1.9,5.61,5.61,0,0,1,1,3,7.1,7.1,0,0,1-.68,3.13,12.46,12.46,0,0,1-4.29,4.89,17.45,17.45,0,0,1-13.1,2.82,15.53,15.53,0,0,1-6.38-2.75,11.39,11.39,0,0,1-4.07-5.36,9.09,9.09,0,0,1,.21-6.48,6.42,6.42,0,0,1,4.79-3.88,4.32,4.32,0,0,1,4.81,3.05,3.92,3.92,0,0,1-.5,2.87,5.55,5.55,0,0,1-2,2,8,8,0,0,1-5.18.66,26.44,26.44,0,0,1-4.64-1.27,15.88,15.88,0,0,1-6.87-4.49,9.52,9.52,0,0,1-2.23-5.75,7.3,7.3,0,0,1,.86-3.82,4.91,4.91,0,0,1,.82-1.1s-.3.37-.73,1.15a7.43,7.43,0,0,0-.74,3.76,9.37,9.37,0,0,0,2.24,5.57,15.54,15.54,0,0,0,6.78,4.33,26.35,26.35,0,0,0,4.57,1.22,7.58,7.58,0,0,0,4.9-.63,5,5,0,0,0,1.84-1.82A3.49,3.49,0,0,0,266,269a3.85,3.85,0,0,0-4.3-2.67,5.93,5.93,0,0,0-4.4,3.6,8.54,8.54,0,0,0-.18,6.12,10.82,10.82,0,0,0,3.89,5.11,15.19,15.19,0,0,0,6.16,2.65,17,17,0,0,0,12.72-2.73,12,12,0,0,0,4.13-4.67,6.67,6.67,0,0,0,.64-2.92,5.07,5.07,0,0,0-.92-2.72,4.54,4.54,0,0,0-2.17-1.74,3.29,3.29,0,0,0-2.63.16,4.81,4.81,0,0,0-2.35,4.44,6.34,6.34,0,0,0,2.34,4.28,11,11,0,0,0,4.11,2.2,13.84,13.84,0,0,0,8,0,13.63,13.63,0,0,0,5.27-3.05,14.52,14.52,0,0,0,2.47-3l.5-.88Z" style="fill:#fff"></path><path d="M297.39,324.3l-.27.12c-.18.06-.45.18-.81.28a13.84,13.84,0,0,1-3.26.56,15.38,15.38,0,0,1-5.2-.6,14.68,14.68,0,0,1-6-3.44,15.33,15.33,0,0,1-4.66-11.94,10.35,10.35,0,0,1,1.38-4.81,5.63,5.63,0,0,1,1.88-1.88,4.78,4.78,0,0,1,2.65-.66,3.53,3.53,0,0,1,2.55,1.17,4,4,0,0,1,1,2.69,5,5,0,0,1-.83,2.77,7.48,7.48,0,0,1-2.07,2.05,13.92,13.92,0,0,1-5.46,2.09,16.55,16.55,0,0,1-11.13-2.24,14.49,14.49,0,0,1-4.07-3.67,10.25,10.25,0,0,1-2.1-4.83,6.16,6.16,0,0,1,1.36-4.8,4.49,4.49,0,0,1,2-1.4,4.15,4.15,0,0,1,2.39-.06,4,4,0,0,1,2,1.17,3.18,3.18,0,0,1,.84,2.06,4.75,4.75,0,0,1-1.81,3.63,9,9,0,0,1-3.24,1.78,12.81,12.81,0,0,1-3.22.63,12.34,12.34,0,0,1-5.17-.79,11.8,11.8,0,0,1-2.87-1.64,7,7,0,0,1-.66-.56c-.14-.13-.21-.2-.2-.21s.31.25.92.68a11.86,11.86,0,0,0,8,2.23,12.42,12.42,0,0,0,3.14-.66,8.5,8.5,0,0,0,3.1-1.74,4.36,4.36,0,0,0,1.65-3.33,3.15,3.15,0,0,0-2.54-2.83,3.68,3.68,0,0,0-2.13.06,4.11,4.11,0,0,0-1.82,1.27,5.78,5.78,0,0,0-1.24,4.45,9.76,9.76,0,0,0,2,4.59,14,14,0,0,0,3.94,3.54,16.11,16.11,0,0,0,10.77,2.16,13.56,13.56,0,0,0,5.26-2,5.39,5.39,0,0,0,2.68-4.39,3.59,3.59,0,0,0-.82-2.36,3.11,3.11,0,0,0-2.19-1,4.37,4.37,0,0,0-2.38.59,5.24,5.24,0,0,0-1.73,1.71,10,10,0,0,0-1.32,4.59,15.25,15.25,0,0,0,.41,4.56,15.06,15.06,0,0,0,4.05,7.08,14.55,14.55,0,0,0,5.82,3.44,15.58,15.58,0,0,0,8.35.21C297,324.41,297.38,324.28,297.39,324.3Z" style="fill:#fff"></path><path d="M280.62,268.1a4.24,4.24,0,0,1,.27,1.07c.16.81.35,1.8.58,3,.51,2.62,1.17,6,1.89,9.75s1.35,7.28,1.75,9.79c.19,1.26.34,2.28.42,3a4.44,4.44,0,0,1,.06,1.11,4.8,4.8,0,0,1-.26-1.08c-.16-.81-.36-1.79-.59-2.95-.51-2.62-1.16-6-1.89-9.76s-1.35-7.27-1.74-9.79c-.2-1.26-.34-2.28-.42-3A4.16,4.16,0,0,1,280.62,268.1Z" style="fill:#263238"></path><path d="M302.13,286.14a77.18,77.18,0,0,1-9.15.29,82.37,82.37,0,0,1-9.15-.22,78.36,78.36,0,0,1,9.15-.3A83.7,83.7,0,0,1,302.13,286.14Z" style="fill:#263238"></path><path d="M242.48,286.87a91,91,0,0,1-6.3-7.3,86.4,86.4,0,0,1-5.89-7.62,89.68,89.68,0,0,1,6.3,7.29A90.44,90.44,0,0,1,242.48,286.87Z" style="fill:#263238"></path><path d="M275.31,254.47a9.34,9.34,0,0,1-2.29.26c-1.42.08-3.38.13-5.55.1s-4.12-.14-5.54-.27a9.23,9.23,0,0,1-2.28-.33,11.27,11.27,0,0,1,2.3,0l5.53.12,5.53.05A11.85,11.85,0,0,1,275.31,254.47Z" style="fill:#263238"></path><path d="M247.86,286.25a8.9,8.9,0,0,1,.87-2l1.08-2.14a4.08,4.08,0,0,0,.75-2.61c-.37-2-.73-3.9-.94-5.24a9.72,9.72,0,0,1-.24-2.21,9.33,9.33,0,0,1,.6,2.14c.31,1.34.72,3.16,1.09,5.24a2.68,2.68,0,0,1-.18,1.61,12.84,12.84,0,0,1-.66,1.29q-.63,1.11-1.17,2.1A9.76,9.76,0,0,1,247.86,286.25Z" style="fill:#263238"></path><path d="M207.69,441.87V431.56l18.47-.12.16,15.42-1.15.08c-5.1.33-25.93,1-29.35-.09C192,445.67,207.69,441.87,207.69,441.87Z" style="fill:#707986"></path><path d="M195.38,445.91c0,.17,6.91.31,15.44.31s15.43-.14,15.43-.31-6.91-.32-15.43-.32S195.38,445.74,195.38,445.91Z" style="fill:#263238"></path><path d="M207.36,444c.15-.08,0-.63-.37-1.16s-.88-.83-1-.71.13.58.49,1.08S207.21,444.06,207.36,444Z" style="fill:#263238"></path><path d="M206.18,444.66c.16-.06.08-.67-.28-1.32s-.84-1-1-.92.1.63.43,1.23S206,444.72,206.18,444.66Z" style="fill:#263238"></path><path d="M220.69,445.84c.07.05.34-.22.74-.68a13,13,0,0,1,1.62-1.62,4.35,4.35,0,0,1,2-.87c.56-.08.93,0,1-.08s-.32-.33-1-.37a3.74,3.74,0,0,0-2.37.82,6.65,6.65,0,0,0-1.59,1.86C220.76,445.43,220.62,445.79,220.69,445.84Z" style="fill:#263238"></path><path d="M207.31,442c-.09.14.22.5.75.7s1,.12,1-.05-.35-.37-.81-.54S207.4,441.89,207.31,442Z" style="fill:#263238"></path><path d="M207.6,441c0,.17.47.32,1.1.33s1.12-.12,1.1-.3-.5-.32-1.1-.33S207.61,440.87,207.6,441Z" style="fill:#263238"></path><path d="M246.69,441.87V431.56l18.47-.12.16,15.42-1.15.08c-5.09.33-25.93,1-29.35-.09C231,445.67,246.69,441.87,246.69,441.87Z" style="fill:#707986"></path><path d="M234.39,445.91c0,.17,6.91.31,15.43.31s15.43-.14,15.43-.31-6.9-.32-15.43-.32S234.39,445.74,234.39,445.91Z" style="fill:#263238"></path><path d="M246.36,444c.16-.08,0-.63-.37-1.16s-.88-.83-1-.71.13.58.49,1.08S246.21,444.06,246.36,444Z" style="fill:#263238"></path><path d="M245.19,444.66c.16-.06.07-.67-.29-1.32s-.84-1-1-.92.1.63.43,1.23S245,444.72,245.19,444.66Z" style="fill:#263238"></path><path d="M259.69,445.84c.07.05.35-.22.75-.68a11.71,11.71,0,0,1,1.62-1.62,4.27,4.27,0,0,1,2-.87c.56-.08.93,0,1-.08s-.31-.33-1-.37a3.74,3.74,0,0,0-2.37.82,6.82,6.82,0,0,0-1.59,1.86C259.76,445.43,259.62,445.79,259.69,445.84Z" style="fill:#263238"></path><path d="M246.31,442c-.09.14.22.5.75.7s1,.12,1-.05-.35-.37-.81-.54S246.4,441.89,246.31,442Z" style="fill:#263238"></path><path d="M246.6,441c0,.17.47.32,1.1.33s1.12-.12,1.11-.3-.51-.32-1.1-.33S246.61,440.87,246.6,441Z" style="fill:#263238"></path><path d="M303.89,299.48c-1-8.09-2.07-13.31-2.07-13.31l-17.61.27s1.58,8.89,1.09,11.27c-.42,2.08-34.41,3.45-43.27,3.59-.52-.39-1.29.27-2-.32a7.13,7.13,0,0,1-1.51-1.86,10.91,10.91,0,0,1-1.21-2.75.9.9,0,0,0-1.68-.38c-.36.76,0,3.28,1.72,5.72s-2.72,1.17-4.34.74-6.67-1.53-7.2-1.12c-.76.59-.28,1.54,1.34,1.94s6.41,1.92,6.15,2.78-8.45-1.46-8.45-1.46-1.68-.79-2,.2c-.61,1.78,8.28,3.59,9.13,3.74.59.1.34,1.05-.29.91s-8.12-2.51-8.76-.7c-.48,1.39,7.3,1.55,8.59,2.93s-5.89-.75-6.3.6c-.15.5,2.83.73,7.12,1.33a109.47,109.47,0,0,0,13.27.48c10,.54,45.15,1.27,52.67.74C307.06,314.2,304.22,302.26,303.89,299.48Z" style="fill:#ffbe9d"></path><path d="M222.77,328a263.38,263.38,0,0,1,45.62-.58l-19.28,27.69-17.4.07-3.64,85.07H205l2.2-94.89A17.93,17.93,0,0,1,222.77,328Z" style="fill:#263238"></path><path d="M222.77,328a263.38,263.38,0,0,1,45.62-.58l-19.28,27.69-17.4.07-3.64,85.07H205l2.2-94.89A17.93,17.93,0,0,1,222.77,328Z" style="opacity:0.2"></path><path d="M265.13,357.29s34.47,2.34,33.61-28.61c0,0-47.93-5.83-57.11,4.06-7.7,8.29-.66,107.51-.66,107.51L266.6,439" style="fill:#263238"></path><path d="M272.3,327a2.83,2.83,0,0,1-.68,0l-1.95.08c-1.69.07-4.13.21-7.15.43l-4.93.38c-1.77.17-3.67.32-5.61.67a36.66,36.66,0,0,0-6,1.64c-2,.77-4,1.92-5,4a21,21,0,0,0-1.71,6.4,62.36,62.36,0,0,0-.43,6.24c-.09,4-.28,7.6-.41,10.63s-.22,5.4-.29,7.15c0,.81-.05,1.45-.07,1.95a3.56,3.56,0,0,1-.05.68,2.74,2.74,0,0,1-.05-.68c0-.44,0-1.1,0-1.95,0-1.69,0-4.14.12-7.17s.23-6.63.3-10.62a57.83,57.83,0,0,1,.41-6.29,21.07,21.07,0,0,1,1.74-6.57,7.12,7.12,0,0,1,2.27-2.68,13.34,13.34,0,0,1,3-1.56,36.9,36.9,0,0,1,6.1-1.63c2-.34,3.9-.48,5.67-.63s3.44-.24,4.95-.32c3-.17,5.47-.25,7.17-.27.84,0,1.5,0,1.95,0A3.1,3.1,0,0,1,272.3,327Z" style="fill:#455a64"></path><path d="M266.8,432.54a3.8,3.8,0,0,1-1,.16c-.65.06-1.61.14-2.79.22-2.35.17-5.61.36-9.21.54s-6.86.32-9.22.39c-1.18,0-2.14.06-2.8.06a3.82,3.82,0,0,1-1-.05,4.14,4.14,0,0,1,1-.15c.66-.07,1.61-.14,2.79-.22,2.35-.17,5.61-.36,9.21-.55s6.86-.31,9.22-.39c1.18,0,2.14-.05,2.8-.05A4.18,4.18,0,0,1,266.8,432.54Z" style="fill:#455a64"></path><path d="M228.83,433.7c0,.14-5.35.26-12,.26s-12-.12-12-.26,5.36-.26,12-.26S228.83,433.55,228.83,433.7Z" style="fill:#455a64"></path><path d="M239.42,338.19a.91.91,0,0,1-.29,0l-.85-.07c-.74-.07-1.84-.16-3.26-.22s-3.16-.12-5.17,0a27.17,27.17,0,0,0-3.2.33,9.9,9.9,0,0,0-3.37,1.08,2.88,2.88,0,0,0-1.26,1.3,14.6,14.6,0,0,0-.65,1.9,33,33,0,0,0-.83,4.21c-.29,3-.55,6.15-.79,9.5-.48,6.71-.83,14.09-1.11,21.84-.52,15.52-1.11,29.56-1.53,39.73-.22,5.05-.4,9.15-.53,12-.08,1.39-.13,2.49-.17,3.27,0,.35,0,.63-.06.85a1.22,1.22,0,0,1,0,.29,1.29,1.29,0,0,1,0-.29v-.85c0-.79,0-1.88.08-3.28.08-2.88.21-7,.36-12,.36-10.2.85-24.23,1.38-39.73.28-7.75.65-15.14,1.15-21.85q.38-5,.84-9.53a30.86,30.86,0,0,1,.88-4.26,12.47,12.47,0,0,1,.68-1.95,3.29,3.29,0,0,1,1.42-1.46,10.39,10.39,0,0,1,3.51-1.09,27.58,27.58,0,0,1,3.24-.29,51.59,51.59,0,0,1,5.19.11c1.42.1,2.52.23,3.26.32l.85.13A1,1,0,0,1,239.42,338.19Z" style="fill:#455a64"></path><path d="M293,328.09a1.33,1.33,0,0,1,0,.35c0,.23-.05.58-.13,1a11.45,11.45,0,0,1-1.39,3.74,11.54,11.54,0,0,1-8.36,5.52,37.87,37.87,0,0,1-4.44.13H262.9c-1,0-2,0-2.94,0a7.44,7.44,0,0,0-2.84.68,7.68,7.68,0,0,0-4,4.35,8.42,8.42,0,0,0-.46,3.1v3.31c0,4.45,0,9.06,0,13.79,0,18.88-.06,36-.08,48.38,0,6.16-.06,11.17-.08,14.66,0,1.71,0,3,0,4,0,.43,0,.77,0,1s0,.35,0,.35a1.49,1.49,0,0,1,0-.35c0-.26,0-.6,0-1,0-1,0-2.28,0-4,0-3.49,0-8.5-.08-14.66,0-12.41-.05-29.5-.08-48.38,0-4.73,0-9.34,0-13.79V347a8.89,8.89,0,0,1,.51-3.27,8.14,8.14,0,0,1,4.29-4.62,8,8,0,0,1,3-.71c1,0,2,0,3,0l5.64,0,10.12.06a39.16,39.16,0,0,0,4.39-.09,11.37,11.37,0,0,0,8.23-5.31,11.77,11.77,0,0,0,1.47-3.66c.09-.44.13-.78.17-1S293,328.09,293,328.09Z" style="fill:#455a64"></path><path d="M265.47,350.43a29.69,29.69,0,0,1-.45,7.91,15.31,15.31,0,0,1,0-4A15.51,15.51,0,0,1,265.47,350.43Z" style="fill:#455a64"></path><path d="M122.35,293.29s-1.11-8.83-.24-8.83,1.41,8.83,1.41,8.83h-1.46" style="fill:#263238"></path><path d="M125.23,293.29s-1.11-8.83-.23-8.83,1.4,8.83,1.4,8.83h-1.46" style="fill:#707986"></path><path d="M125.23,293.29s-1.11-8.83-.23-8.83,1.4,8.83,1.4,8.83h-1.46" style="opacity:0.30000000000000004"></path><path d="M129.64,293.29s-1.11-8.83-.23-8.83,1.4,8.83,1.4,8.83h-1.46" style="fill:#263238"></path><path d="M127.06,293.75s0-8.89.88-8.78.28,8.93.28,8.93l-1.45-.18" style="fill:#455a64"></path><path d="M124.36,293.29s-1.11-8.83-.23-8.83,1.4,8.83,1.4,8.83h-1.46" style="fill:#707986"></path><path d="M124.36,293.29s-1.11-8.83-.23-8.83,1.4,8.83,1.4,8.83h-1.46" style="fill:#fff;opacity:0.5"></path><polygon points="122.17 307.18 120.7 293.29 132.48 293.29 132.48 307.18 122.17 307.18" style="fill:#707986"></polygon><polygon points="372.64 307.24 112.35 307.24 112.35 314.19 126.27 314.19 119.06 446.83 123.03 446.83 130.24 314.19 358.44 314.19 364.59 446.81 368.98 447.04 362.41 314.19 372.64 314.19 372.64 307.24" style="fill:#263238"></polygon><polygon points="197.56 266.19 212 308.37 277.36 308.37 276.87 306.19 250.44 305.38 238.27 266.17 197.56 266.19" style="fill:#263238"></polygon><path d="M226.53,286c.43,1.73-.31,3.42-1.66,3.78s-2.78-.75-3.21-2.48.31-3.42,1.65-3.78S226.1,284.27,226.53,286Z" style="fill:#fff"></path><path d="M353,294.34a6,6,0,0,0-4.05-1.16c0-.79,0-1.27,0-1.27H326.78s-.69,14.61,10.49,15.13c5,.23,7.88-2,9.52-4.84a10.83,10.83,0,0,0,2.5.31,5.83,5.83,0,0,0,3.49-1,4.38,4.38,0,0,0,1.66-3.74A4.3,4.3,0,0,0,353,294.34Zm-1.51,5.43c-1,.71-2.64.6-3.74.4a19.8,19.8,0,0,0,1.08-4.8,4.17,4.17,0,0,1,2.77.64,2.17,2.17,0,0,1,.67,1.77A2.3,2.3,0,0,1,351.48,299.77Z" style="fill:#707986"></path><path d="M347.08,290.37a2.94,2.94,0,0,1-.53-.62,5.93,5.93,0,0,1-.91-2.16,6.25,6.25,0,0,1,.33-3.69,12.2,12.2,0,0,1,3.1-3.79,9.12,9.12,0,0,0,2.8-5,8.59,8.59,0,0,0-1.19-6.34,9.07,9.07,0,0,0-2.46-2.56,13.11,13.11,0,0,0-3.42-1.53,10.34,10.34,0,0,1-3.61-1.82,5.11,5.11,0,0,1-1.28-1.69,3.3,3.3,0,0,1-.27-2.17l.09-.3.33.33a3.43,3.43,0,0,0-2,3,7,7,0,0,0,.82,3.66c.55,1.15,1.23,2.23,1.72,3.4a7.17,7.17,0,0,1,.7,3.66,5.17,5.17,0,0,1-1.64,3.15,10.29,10.29,0,0,1-2.78,1.85c-1.94.88-3.85,1.4-5.37,2.31a7.59,7.59,0,0,0-3.12,3.46,8.46,8.46,0,0,0-.75,3.49,9.57,9.57,0,0,0,.58,3s0-.06-.1-.18a3.48,3.48,0,0,1-.24-.55,7.24,7.24,0,0,1-.44-2.28,8.46,8.46,0,0,1,.69-3.62,7.76,7.76,0,0,1,3.19-3.65,53.41,53.41,0,0,1,5.38-2.39,9.77,9.77,0,0,0,2.63-1.78,4.72,4.72,0,0,0,1.49-2.88,6.69,6.69,0,0,0-.67-3.41c-.48-1.12-1.16-2.2-1.73-3.39a7.27,7.27,0,0,1-.87-3.93,4.76,4.76,0,0,1,.68-2,3.32,3.32,0,0,1,1.68-1.38l.47-.16-.14.49-.07.25a3.63,3.63,0,0,0,1.38,3.36,10,10,0,0,0,3.43,1.71,13.67,13.67,0,0,1,3.54,1.61,9.23,9.23,0,0,1,2.58,2.71,9,9,0,0,1,1.21,6.68,9.52,9.52,0,0,1-3,5.14,12,12,0,0,0-3.09,3.65,6.11,6.11,0,0,0-.4,3.53A6.71,6.71,0,0,0,347.08,290.37Z" style="fill:#263238"></path><polygon points="142.8 270.88 142.67 261.32 176.18 264.16 177.13 272.69 142.8 270.88" style="fill:#263238"></polygon><path d="M146.49,271.08a22.48,22.48,0,0,1-.45-4.71,22,22,0,0,1,.08-4.73,21.9,21.9,0,0,1,.44,4.71A21.51,21.51,0,0,1,146.49,271.08Z" style="fill:#455a64"></path><path d="M147.75,261.75a21.28,21.28,0,0,1,.36,4.69,20.69,20.69,0,0,1-.16,4.71,22.08,22.08,0,0,1-.36-4.7A21.33,21.33,0,0,1,147.75,261.75Z" style="fill:#455a64"></path><path d="M150.8,266c5.84.64,12.7,1,18.64,1.54" style="fill:#fff"></path><path d="M169.44,267.5a15.29,15.29,0,0,1-2.74-.05c-1.7-.08-4-.23-6.6-.42s-4.91-.41-6.59-.61a13.54,13.54,0,0,1-2.71-.46,14.68,14.68,0,0,1,2.74.09l6.59.46c2.58.19,4.91.39,6.59.58A13.75,13.75,0,0,1,169.44,267.5Z" style="fill:#455a64"></path><path d="M171.89,272.41a35.3,35.3,0,0,1-.42-8.55,35.3,35.3,0,0,1,.42,8.55Z" style="fill:#455a64"></path><path d="M174,272.52a18,18,0,0,1-.68-4.26,17.69,17.69,0,0,1-.16-4.31,18.72,18.72,0,0,1,.68,4.26A18.31,18.31,0,0,1,174,272.52Z" style="fill:#455a64"></path><path d="M155.77,268.1c3.69.25,6.5.43,9.44.5" style="fill:#fff"></path><path d="M165.21,268.6a21,21,0,0,1-4.73,0,22.09,22.09,0,0,1-4.71-.51,21.06,21.06,0,0,1,4.73,0A22.09,22.09,0,0,1,165.21,268.6Z" style="fill:#455a64"></path><polygon points="149.28 307.36 148.37 297.84 181.99 297.9 183.82 307.24 149.28 307.36" style="fill:#707986"></polygon><polygon points="149.28 307.36 148.37 297.84 181.99 297.9 183.82 307.24 149.28 307.36" style="fill:#fff;opacity:0.5"></polygon><rect x="165.69" y="291.9" width="1.72" height="21.03" transform="translate(-136.15 468.46) rotate(-89.9)" style="fill:#263238"></rect><polygon points="144.54 298.64 143.73 289.12 177.35 289.53 178.92 297.98 144.54 298.64" style="fill:#263238"></polygon><polygon points="143.84 290.41 144.37 296.84 177.07 296.51 176.03 290.63 143.84 290.41" style="fill:#fff"></polygon><path d="M174.31,293.26a5.14,5.14,0,0,1-1.18.08l-3.22,0c-2.72,0-6.47,0-10.61-.1s-7.89-.17-10.61-.26l-3.21-.14a4.73,4.73,0,0,1-1.18-.12,5,5,0,0,1,1.18-.08l3.22,0c2.71,0,6.46,0,10.61.1s7.89.17,10.61.26l3.21.14A4.73,4.73,0,0,1,174.31,293.26Z" style="fill:#263238"></path><path d="M174.31,294.07a4.87,4.87,0,0,1-1.19.12l-3.24.13c-2.73.09-6.51.17-10.68.23s-8,.08-10.69.07l-3.24,0a4.78,4.78,0,0,1-1.19-.09,6.57,6.57,0,0,1,1.19-.12l3.24-.13c2.73-.08,6.51-.16,10.68-.22s7.95-.09,10.69-.08l3.24,0A6,6,0,0,1,174.31,294.07Z" style="fill:#263238"></path><polygon points="145.04 289.55 144.41 280.01 178.02 281.07 179.42 289.54 145.04 289.55" style="fill:#455a64"></polygon><polygon points="146.37 288.35 179.08 287.88 178.17 281.94 145.76 281.34 146.37 288.35" style="fill:#fff"></polygon><polygon points="145.96 280.19 145.65 270.64 179.2 272.83 180.32 281.34 145.96 280.19" style="fill:#707986"></polygon><rect x="162.64" y="265.85" width="1.72" height="21.03" transform="matrix(0.06, -1, 1, 0.06, -122.88, 421.6)" style="fill:#263238"></rect><path d="M178.5,284.39a6.66,6.66,0,0,1-1.28.1l-3.5.1c-3,.06-7,.1-11.54.12s-8.59,0-11.55,0l-3.49-.07a5.82,5.82,0,0,1-1.29-.1,6.66,6.66,0,0,1,1.28-.1l3.5-.1c3-.06,7-.1,11.55-.12s8.59,0,11.54,0l3.5.07A5.67,5.67,0,0,1,178.5,284.39Z" style="fill:#263238"></path><path d="M178.89,286.24a6.28,6.28,0,0,1-1.3.08l-3.52,0c-3,0-7.09,0-11.63-.09s-8.64-.14-11.62-.23l-3.52-.13a7.58,7.58,0,0,1-1.29-.12,5.55,5.55,0,0,1,1.29-.09l3.52,0c3,0,7.09,0,11.63.08s8.65.15,11.63.24l3.52.13A5.63,5.63,0,0,1,178.89,286.24Z" style="fill:#263238"></path></g></svg>